<?xml version="1.0" encoding="UTF-8" ?>
<!DOCTYPE svg PUBLIC "-//W3C//DTD SVG 1.1//EN" "http://www.w3.org/Graphics/SVG/1.1/DTD/svg11.dtd">
<svg width="256pt" height="256pt" viewBox="0 0 256 256" version="1.1" xmlns="http://www.w3.org/2000/svg">
<g id="#040404ff">
<path fill="#040404" opacity="1.00" d=" M 0.00 0.00 L 256.00 0.00 L 256.00 256.00 L 0.00 256.00 L 0.00 0.00 M 141.75 45.81 C 133.24 50.53 122.86 50.88 113.64 48.19 C 113.38 52.34 113.42 56.50 113.36 60.66 C 108.79 59.90 104.06 59.07 100.15 56.41 C 100.17 63.55 99.83 71.45 104.47 77.41 C 108.06 82.52 114.04 84.82 119.12 88.06 C 119.68 101.39 119.42 114.73 119.47 128.07 C 119.43 148.61 119.53 169.16 119.18 189.70 C 90.84 185.06 66.61 161.43 61.34 133.18 C 58.32 119.23 60.02 104.47 65.30 91.28 C 71.82 74.95 83.43 61.00 97.46 50.53 C 98.62 48.24 97.88 45.44 98.08 42.94 C 97.82 37.68 98.63 32.31 97.43 27.13 C 96.52 28.05 95.58 28.96 94.48 29.65 C 79.05 39.81 65.71 53.38 56.64 69.54 C 41.52 95.92 41.35 130.26 56.35 156.73 C 65.52 172.93 78.73 187.20 95.21 196.10 C 84.31 198.49 73.09 197.41 62.07 197.80 C 65.27 199.58 68.11 201.92 71.26 203.77 C 91.60 213.87 115.22 215.80 137.45 212.31 C 137.02 219.59 132.03 225.50 127.73 231.00 C 137.33 224.68 147.07 218.41 155.50 210.55 C 171.17 196.88 187.20 182.93 198.16 165.01 C 208.25 148.34 212.38 128.21 209.79 108.91 C 207.26 87.29 194.68 67.50 177.21 54.75 C 172.30 51.04 166.87 48.15 161.31 45.55 C 161.43 48.02 160.80 50.69 161.70 53.05 C 181.58 64.93 196.61 85.65 199.73 108.81 C 201.96 125.88 199.03 143.94 189.74 158.62 C 182.45 170.28 171.52 179.32 159.20 185.27 C 153.26 187.78 147.18 190.35 140.69 190.96 C 140.77 156.78 140.28 122.61 140.72 88.44 C 144.51 85.97 148.96 84.56 152.36 81.48 C 157.50 77.28 160.33 70.64 160.18 64.04 C 159.99 51.36 160.47 38.64 159.40 26.00 C 155.06 33.73 149.98 41.76 141.75 45.81 Z" />
</g>
<g id="#fefefeff">
<path fill="#fefefe" opacity="1.00" d=" M 141.75 45.81 C 149.98 41.76 155.06 33.73 159.40 26.00 C 160.47 38.64 159.99 51.36 160.18 64.04 C 160.33 70.64 157.50 77.28 152.36 81.48 C 148.96 84.56 144.51 85.97 140.72 88.44 C 140.28 122.61 140.77 156.78 140.69 190.96 C 147.18 190.35 153.26 187.78 159.20 185.27 C 171.52 179.32 182.45 170.28 189.74 158.62 C 199.03 143.94 201.96 125.88 199.73 108.81 C 196.61 85.65 181.58 64.93 161.70 53.05 C 160.80 50.69 161.43 48.02 161.31 45.55 C 166.87 48.15 172.30 51.04 177.21 54.75 C 194.68 67.50 207.26 87.29 209.79 108.91 C 212.38 128.21 208.25 148.34 198.16 165.01 C 187.20 182.93 171.17 196.88 155.50 210.55 C 147.07 218.41 137.33 224.68 127.73 231.00 C 132.03 225.50 137.02 219.59 137.45 212.31 C 115.22 215.80 91.60 213.87 71.26 203.77 C 68.11 201.92 65.27 199.58 62.07 197.80 C 73.09 197.41 84.31 198.49 95.21 196.10 C 78.73 187.20 65.52 172.93 56.35 156.73 C 41.35 130.26 41.52 95.92 56.64 69.54 C 65.71 53.38 79.05 39.81 94.48 29.65 C 95.58 28.96 96.52 28.05 97.43 27.13 C 98.63 32.31 97.82 37.68 98.08 42.94 C 97.88 45.44 98.62 48.24 97.46 50.53 C 83.43 61.00 71.82 74.95 65.30 91.28 C 60.02 104.47 58.32 119.23 61.34 133.18 C 66.61 161.43 90.84 185.06 119.18 189.70 C 119.53 169.16 119.43 148.61 119.47 128.07 C 119.42 114.73 119.68 101.39 119.12 88.06 C 114.04 84.82 108.06 82.52 104.47 77.41 C 99.83 71.45 100.17 63.55 100.15 56.41 C 104.06 59.07 108.79 59.90 113.36 60.66 C 113.42 56.50 113.38 52.34 113.64 48.19 C 122.86 50.88 133.24 50.53 141.75 45.81 Z" />
</g>
</svg>
