<?xml version="1.0" encoding="UTF-8" ?>
<!DOCTYPE svg PUBLIC "-//W3C//DTD SVG 1.1//EN" "http://www.w3.org/Graphics/SVG/1.1/DTD/svg11.dtd">
<svg width="360pt" height="360pt" viewBox="0 0 360 360" version="1.1" xmlns="http://www.w3.org/2000/svg">
<g id="#fefefeff">
<path fill="#fefefe" opacity="1.00" d=" M 0.00 0.00 L 0.06 0.00 C 0.05 0.01 0.02 0.04 0.00 0.06 L 0.00 0.00 Z" />
<path fill="#fefefe" opacity="1.00" d=" M 195.77 44.85 C 200.16 40.72 202.31 34.88 206.54 30.65 C 206.31 32.09 205.69 33.47 205.74 34.96 C 205.93 43.28 206.33 51.61 206.12 59.94 C 206.07 66.79 207.08 74.20 203.44 80.40 C 200.25 86.28 194.25 89.73 188.34 92.38 C 185.94 93.17 186.98 96.10 186.66 97.97 C 186.39 130.64 186.68 163.32 186.75 195.99 C 204.22 193.12 220.53 183.34 231.57 169.52 C 243.06 155.16 247.71 136.17 246.15 118.01 C 244.33 93.20 228.70 70.48 207.52 57.94 C 207.27 55.70 207.21 53.44 207.12 51.18 C 207.97 51.31 208.86 51.31 209.65 51.71 C 230.00 61.25 246.39 79.38 253.02 100.95 C 258.43 118.85 257.51 138.52 250.99 156.00 C 243.01 177.08 226.58 193.35 210.06 208.03 C 198.93 218.27 187.15 227.85 174.14 235.61 C 178.30 230.12 182.82 224.43 183.66 217.34 C 162.03 220.64 139.21 218.99 119.18 209.75 C 115.25 207.78 111.68 205.19 108.13 202.62 C 119.12 202.70 130.24 203.32 141.09 201.11 C 120.55 189.70 104.62 170.49 96.33 148.58 C 89.00 128.06 89.57 104.87 97.68 84.67 C 106.89 62.79 123.86 44.75 143.95 32.40 C 144.06 40.06 144.31 47.73 143.82 55.38 C 131.13 64.53 120.60 76.69 113.77 90.79 C 106.09 106.17 103.72 124.29 107.98 141.01 C 114.23 168.03 137.80 190.18 165.15 194.72 C 165.58 169.80 165.42 144.87 165.48 119.94 C 165.46 110.98 165.50 102.03 165.14 93.07 C 159.86 89.80 153.63 87.38 150.15 81.92 C 145.80 76.07 146.24 68.44 146.14 61.54 C 150.17 63.94 154.76 64.99 159.35 65.71 C 159.43 61.54 159.29 57.37 159.67 53.22 C 172.07 57.03 186.62 54.38 195.77 44.85 Z" />
<path fill="#fefefe" opacity="1.00" d=" M 78.85 251.01 C 75.94 248.09 82.88 249.63 80.53 252.25 C 86.70 252.88 92.87 253.57 99.04 254.13 C 101.93 254.20 104.76 253.45 107.40 252.35 C 107.78 252.43 108.54 252.58 108.92 252.65 C 105.63 256.30 100.75 257.56 95.99 257.62 C 89.81 257.99 83.61 257.21 77.45 257.78 C 72.19 267.34 66.67 276.87 63.09 287.22 C 61.89 291.48 60.17 296.43 62.60 300.58 C 64.86 300.33 67.09 299.87 69.33 299.46 C 66.55 300.61 63.21 302.62 60.30 300.69 C 55.67 297.45 56.41 290.97 57.38 286.13 C 59.87 275.62 65.78 266.31 71.78 257.48 C 64.85 257.88 57.82 258.73 51.32 261.31 C 48.84 262.29 46.26 263.63 44.97 266.08 C 46.11 268.41 50.60 267.47 49.88 270.74 C 47.20 270.31 44.22 269.48 43.17 266.65 C 40.93 263.02 44.56 259.27 47.53 257.50 C 56.00 252.55 66.16 251.12 75.84 251.78 C 76.60 251.59 78.10 251.20 78.85 251.01 Z" />
<path fill="#fefefe" opacity="1.00" d=" M 137.06 255.05 C 140.00 252.32 143.46 249.07 147.84 250.17 C 148.74 251.99 148.59 253.89 147.46 255.56 C 142.20 264.53 134.47 271.66 127.20 278.97 C 123.95 284.34 121.41 290.39 120.81 296.70 C 128.10 295.40 132.30 288.58 137.45 283.94 C 135.19 288.57 131.15 291.94 127.67 295.62 C 125.78 297.57 122.70 300.18 120.05 297.87 C 116.79 295.99 117.06 291.83 117.62 288.64 C 115.03 291.26 111.78 293.35 108.04 293.68 C 105.38 295.88 102.52 298.22 98.99 298.70 C 96.50 298.87 94.83 296.87 93.24 295.31 C 93.12 293.18 93.15 291.05 93.37 288.93 C 90.79 291.37 87.65 293.36 84.04 293.68 C 81.65 295.67 79.13 297.67 76.08 298.52 C 73.56 299.19 70.93 297.68 69.57 295.62 C 66.47 285.12 79.08 272.26 89.34 278.72 C 92.23 283.50 88.00 288.23 85.81 292.29 C 89.60 290.26 93.92 288.21 95.83 284.09 C 99.01 278.13 107.24 274.71 113.22 278.71 C 113.68 279.84 114.16 280.97 114.64 282.10 C 113.78 285.82 111.76 289.07 109.81 292.30 C 112.52 291.01 114.98 289.32 117.45 287.65 C 122.10 275.79 128.33 264.42 137.06 255.05 M 131.67 271.10 C 136.38 264.98 142.16 259.59 145.66 252.60 C 139.92 257.86 135.48 264.36 131.67 271.10 M 73.77 296.66 C 76.69 296.02 79.25 294.47 81.66 292.78 C 79.47 287.30 83.31 282.01 87.38 278.69 C 79.01 279.64 72.84 288.52 73.77 296.66 M 97.78 296.67 C 100.69 296.02 103.25 294.47 105.66 292.78 C 103.51 287.41 107.20 282.19 111.14 278.86 C 102.86 279.65 96.85 288.70 97.78 296.67 M 83.77 290.61 C 86.19 287.69 88.86 284.35 88.48 280.31 C 85.72 283.08 84.63 286.91 83.77 290.61 M 107.78 290.56 C 110.29 287.66 112.80 284.28 112.52 280.23 C 109.77 283.02 108.64 286.84 107.78 290.56 Z" />
<path fill="#fefefe" opacity="1.00" d=" M 168.71 257.71 C 171.58 254.57 174.73 250.74 179.12 250.01 C 182.14 249.16 183.55 252.62 181.84 254.83 C 176.62 264.23 168.53 271.54 161.07 279.11 C 158.01 284.50 155.38 290.39 154.80 296.64 C 160.26 295.94 164.15 291.42 167.67 287.60 C 170.45 283.72 171.84 276.43 177.87 277.02 C 176.31 283.66 171.99 289.33 170.36 296.01 C 174.58 293.14 178.19 289.47 182.38 286.56 C 185.65 276.10 190.90 266.27 197.40 257.47 C 199.74 254.72 201.80 251.33 205.32 249.96 C 206.77 251.29 205.04 253.01 204.46 254.36 C 199.23 262.61 193.88 270.83 189.82 279.74 C 194.02 277.63 198.85 275.61 203.54 277.44 C 204.22 278.16 204.92 278.89 205.62 279.62 C 206.72 284.33 204.08 288.56 201.21 292.03 C 205.69 289.81 210.31 287.08 213.08 282.79 C 213.39 280.03 214.19 277.39 215.86 275.14 C 217.12 275.18 218.38 275.25 219.64 275.37 C 219.89 277.79 219.14 280.11 218.44 282.39 C 223.40 280.79 228.00 278.26 232.16 275.14 C 233.16 276.26 235.52 277.34 234.29 279.14 C 231.34 284.57 227.97 289.82 225.95 295.69 C 229.88 292.71 234.11 289.99 237.44 286.32 C 240.29 281.73 244.44 277.42 250.01 276.56 C 253.26 276.55 255.65 279.08 256.71 281.94 C 253.97 280.95 250.89 280.49 248.39 282.38 C 243.33 285.46 239.86 290.69 238.38 296.38 C 246.90 295.85 249.93 286.18 257.16 283.16 C 257.79 284.24 259.02 285.26 258.49 286.66 C 257.41 290.45 254.77 293.59 253.72 297.41 C 259.78 293.34 264.33 287.51 270.05 283.03 C 270.60 280.68 270.48 278.03 272.31 276.20 C 273.19 274.52 275.17 275.26 276.64 275.31 C 276.86 277.76 276.14 280.11 275.54 282.45 C 280.39 280.70 285.03 278.34 289.11 275.16 C 289.96 276.23 292.25 276.91 291.51 278.64 C 288.62 284.28 284.99 289.59 283.01 295.66 C 286.63 293.08 290.21 290.41 293.49 287.40 C 296.28 283.17 297.96 276.33 304.03 276.01 C 302.38 282.57 298.03 288.55 298.82 295.64 C 306.67 293.50 311.45 286.22 316.62 280.49 C 317.09 280.25 318.04 279.77 318.51 279.53 C 317.87 285.16 315.79 290.46 313.67 295.66 C 310.07 304.19 306.46 313.19 299.50 319.57 C 295.30 323.12 289.15 326.56 283.82 323.23 C 281.36 319.22 282.87 314.21 285.89 310.98 C 290.51 305.92 296.57 302.46 302.50 299.19 C 296.46 304.17 287.84 307.25 285.05 315.21 C 283.78 318.66 286.89 321.40 289.89 322.31 C 296.22 319.80 299.93 313.65 302.95 307.90 C 306.43 300.83 309.67 293.64 313.12 286.55 C 308.89 292.08 302.37 300.15 294.44 296.60 C 293.20 294.20 292.79 291.49 293.50 288.85 C 290.92 292.47 287.37 295.25 283.79 297.82 C 281.64 299.57 278.08 298.44 277.64 295.61 C 277.68 290.93 280.21 286.91 281.98 282.75 C 279.92 283.99 277.80 285.62 275.28 285.60 C 273.87 285.19 272.55 284.51 271.22 283.92 C 265.64 288.41 262.02 295.06 255.70 298.70 C 254.12 298.83 252.12 299.08 250.87 297.90 C 249.19 294.53 251.99 291.16 253.11 288.11 C 249.42 291.44 246.40 295.60 242.08 298.18 C 240.52 299.26 238.62 298.54 236.94 298.29 C 235.81 295.56 235.36 292.67 235.70 289.73 C 232.84 293.21 229.44 296.41 225.44 298.50 C 223.07 299.31 221.33 297.36 220.42 295.43 C 221.10 290.97 222.83 286.77 225.28 282.99 C 223.19 284.02 221.11 285.19 218.80 285.62 C 217.20 285.36 215.75 284.55 214.22 284.08 C 210.93 286.10 208.74 289.47 205.46 291.52 C 202.61 293.75 198.72 293.75 195.86 295.96 C 192.07 298.62 187.14 299.55 182.88 297.44 C 182.54 297.82 181.85 298.59 181.50 298.97 C 181.20 297.70 180.88 296.43 180.55 295.17 C 180.90 293.08 181.22 290.98 181.50 288.89 C 178.40 291.99 175.47 295.30 171.95 297.95 C 170.94 298.72 169.55 298.50 168.37 298.78 C 165.42 296.65 166.34 292.78 167.13 289.79 C 164.54 292.65 162.03 295.69 158.89 297.97 C 156.37 300.00 153.00 297.87 151.76 295.42 C 150.79 292.48 151.40 289.28 152.28 286.39 C 155.74 275.84 161.66 266.23 168.71 257.71 M 166.27 270.10 C 171.06 264.62 176.20 259.28 179.56 252.74 C 174.15 257.68 169.84 263.73 166.27 270.10 M 188.36 283.36 C 186.16 285.97 185.47 289.51 183.97 292.53 C 187.52 290.91 191.45 291.31 195.21 291.65 C 198.73 288.25 202.38 283.76 201.43 278.52 C 196.73 278.84 192.22 280.72 188.36 283.36 M 184.67 296.33 C 187.95 296.85 190.81 294.73 193.33 292.94 C 190.51 292.92 183.74 291.63 184.67 296.33 Z" />
<path fill="#fefefe" opacity="1.00" d=" M 175.43 272.76 C 174.10 269.09 179.22 268.49 181.75 269.05 C 181.79 269.78 181.87 271.24 181.91 271.97 C 179.88 272.88 177.62 273.38 175.43 272.76 Z" />
</g>
<g id="#030303ff">
<path fill="#030303" opacity="1.00" d=" M 0.06 0.00 L 360.00 0.00 L 360.00 360.00 L 0.00 360.00 L 0.00 0.06 C 0.02 0.04 0.05 0.01 0.06 0.00 M 195.77 44.85 C 186.62 54.38 172.07 57.03 159.67 53.22 C 159.29 57.37 159.43 61.54 159.35 65.71 C 154.76 64.99 150.17 63.94 146.14 61.54 C 146.24 68.44 145.80 76.07 150.15 81.92 C 153.63 87.38 159.86 89.80 165.14 93.07 C 165.50 102.03 165.46 110.98 165.48 119.94 C 165.42 144.87 165.58 169.80 165.15 194.72 C 137.80 190.18 114.23 168.03 107.98 141.01 C 103.72 124.29 106.09 106.17 113.77 90.79 C 120.60 76.69 131.13 64.53 143.82 55.38 C 144.31 47.73 144.06 40.06 143.95 32.40 C 123.86 44.75 106.89 62.79 97.68 84.67 C 89.57 104.87 89.00 128.06 96.33 148.58 C 104.62 170.49 120.55 189.70 141.09 201.11 C 130.24 203.32 119.12 202.70 108.13 202.62 C 111.68 205.19 115.25 207.78 119.18 209.75 C 139.21 218.99 162.03 220.64 183.66 217.34 C 182.82 224.43 178.30 230.12 174.14 235.61 C 187.15 227.85 198.93 218.27 210.06 208.03 C 226.58 193.35 243.01 177.08 250.99 156.00 C 257.51 138.52 258.43 118.85 253.02 100.95 C 246.39 79.38 230.00 61.25 209.65 51.71 C 208.86 51.31 207.97 51.31 207.12 51.18 C 207.21 53.44 207.27 55.70 207.52 57.94 C 228.70 70.48 244.33 93.20 246.15 118.01 C 247.71 136.17 243.06 155.16 231.57 169.52 C 220.53 183.34 204.22 193.12 186.75 195.99 C 186.68 163.32 186.39 130.64 186.66 97.97 C 186.98 96.10 185.94 93.17 188.34 92.38 C 194.25 89.73 200.25 86.28 203.44 80.40 C 207.08 74.20 206.07 66.79 206.12 59.94 C 206.33 51.61 205.93 43.28 205.74 34.96 C 205.69 33.47 206.31 32.09 206.54 30.65 C 202.31 34.88 200.16 40.72 195.77 44.85 M 78.85 251.01 C 78.10 251.20 76.60 251.59 75.84 251.78 C 66.16 251.12 56.00 252.55 47.53 257.50 C 44.56 259.27 40.93 263.02 43.17 266.65 C 44.22 269.48 47.20 270.31 49.88 270.74 C 50.60 267.47 46.11 268.41 44.97 266.08 C 46.26 263.63 48.84 262.29 51.32 261.31 C 57.82 258.73 64.85 257.88 71.78 257.48 C 65.78 266.31 59.87 275.62 57.38 286.13 C 56.41 290.97 55.67 297.45 60.30 300.69 C 63.21 302.62 66.55 300.61 69.33 299.46 C 67.09 299.87 64.86 300.33 62.60 300.58 C 60.17 296.43 61.89 291.48 63.09 287.22 C 66.67 276.87 72.19 267.34 77.45 257.78 C 83.61 257.21 89.81 257.99 95.99 257.62 C 100.75 257.56 105.63 256.30 108.92 252.65 C 108.54 252.58 107.78 252.43 107.40 252.35 C 104.76 253.45 101.93 254.20 99.04 254.13 C 92.87 253.57 86.70 252.88 80.53 252.25 C 82.88 249.63 75.94 248.09 78.85 251.01 M 137.06 255.05 C 128.33 264.42 122.10 275.79 117.45 287.65 C 114.98 289.32 112.52 291.01 109.81 292.30 C 111.76 289.07 113.78 285.82 114.64 282.10 C 114.16 280.97 113.68 279.84 113.22 278.71 C 107.24 274.71 99.01 278.13 95.83 284.09 C 93.92 288.21 89.60 290.26 85.81 292.29 C 88.00 288.23 92.23 283.50 89.34 278.72 C 79.08 272.26 66.47 285.12 69.57 295.62 C 70.93 297.68 73.56 299.19 76.08 298.52 C 79.13 297.67 81.65 295.67 84.04 293.68 C 87.65 293.36 90.79 291.37 93.37 288.93 C 93.15 291.05 93.12 293.18 93.24 295.31 C 94.83 296.87 96.50 298.87 98.99 298.70 C 102.52 298.22 105.38 295.88 108.04 293.68 C 111.78 293.35 115.03 291.26 117.62 288.64 C 117.06 291.83 116.79 295.99 120.05 297.87 C 122.70 300.18 125.78 297.57 127.67 295.62 C 131.15 291.94 135.19 288.57 137.45 283.94 C 132.30 288.58 128.10 295.40 120.81 296.70 C 121.41 290.39 123.95 284.34 127.20 278.97 C 134.47 271.66 142.20 264.53 147.46 255.56 C 148.59 253.89 148.74 251.99 147.84 250.17 C 143.46 249.07 140.00 252.32 137.06 255.05 M 168.71 257.71 C 161.66 266.23 155.74 275.84 152.28 286.39 C 151.40 289.28 150.79 292.48 151.76 295.42 C 153.00 297.87 156.37 300.00 158.89 297.97 C 162.03 295.69 164.54 292.65 167.13 289.79 C 166.34 292.78 165.42 296.65 168.37 298.78 C 169.55 298.50 170.94 298.72 171.95 297.95 C 175.47 295.30 178.40 291.99 181.50 288.89 C 181.22 290.98 180.90 293.08 180.55 295.17 C 180.88 296.43 181.20 297.70 181.50 298.97 C 181.85 298.59 182.54 297.82 182.88 297.44 C 187.14 299.55 192.07 298.62 195.86 295.96 C 198.72 293.75 202.61 293.75 205.46 291.52 C 208.74 289.47 210.93 286.10 214.22 284.08 C 215.75 284.55 217.20 285.36 218.80 285.62 C 221.11 285.19 223.19 284.02 225.28 282.99 C 222.83 286.77 221.10 290.97 220.42 295.43 C 221.33 297.36 223.07 299.31 225.44 298.50 C 229.44 296.41 232.84 293.21 235.70 289.73 C 235.36 292.67 235.81 295.56 236.94 298.29 C 238.62 298.54 240.52 299.26 242.08 298.18 C 246.40 295.60 249.42 291.44 253.11 288.11 C 251.99 291.16 249.19 294.53 250.87 297.90 C 252.12 299.08 254.12 298.83 255.70 298.70 C 262.02 295.06 265.64 288.41 271.22 283.92 C 272.55 284.51 273.87 285.19 275.28 285.60 C 277.80 285.62 279.92 283.99 281.98 282.75 C 280.21 286.91 277.68 290.93 277.64 295.61 C 278.08 298.44 281.64 299.57 283.79 297.82 C 287.37 295.25 290.92 292.47 293.50 288.85 C 292.79 291.49 293.20 294.20 294.44 296.60 C 302.37 300.15 308.89 292.08 313.12 286.55 C 309.67 293.64 306.43 300.83 302.95 307.90 C 299.93 313.65 296.22 319.80 289.89 322.31 C 286.89 321.40 283.78 318.66 285.05 315.21 C 287.84 307.25 296.46 304.17 302.50 299.19 C 296.57 302.46 290.51 305.92 285.89 310.98 C 282.87 314.21 281.36 319.22 283.82 323.23 C 289.15 326.56 295.30 323.12 299.50 319.57 C 306.46 313.19 310.07 304.19 313.67 295.66 C 315.79 290.46 317.87 285.16 318.51 279.53 C 318.04 279.77 317.09 280.25 316.62 280.49 C 311.45 286.22 306.67 293.50 298.82 295.64 C 298.03 288.55 302.38 282.57 304.03 276.01 C 297.96 276.33 296.28 283.17 293.49 287.40 C 290.21 290.41 286.63 293.08 283.01 295.66 C 284.99 289.59 288.62 284.28 291.51 278.64 C 292.25 276.91 289.96 276.23 289.11 275.16 C 285.03 278.34 280.39 280.70 275.54 282.45 C 276.14 280.11 276.86 277.76 276.64 275.31 C 275.17 275.26 273.19 274.52 272.31 276.20 C 270.48 278.03 270.60 280.68 270.05 283.03 C 264.33 287.51 259.78 293.34 253.72 297.41 C 254.77 293.59 257.41 290.45 258.49 286.66 C 259.02 285.26 257.79 284.24 257.16 283.16 C 249.93 286.18 246.90 295.85 238.38 296.38 C 239.86 290.69 243.33 285.46 248.39 282.38 C 250.89 280.49 253.97 280.95 256.71 281.94 C 255.65 279.08 253.26 276.55 250.01 276.56 C 244.44 277.42 240.29 281.73 237.44 286.32 C 234.11 289.99 229.88 292.71 225.95 295.69 C 227.97 289.82 231.34 284.57 234.29 279.14 C 235.52 277.34 233.16 276.26 232.16 275.14 C 228.00 278.26 223.40 280.79 218.44 282.39 C 219.14 280.11 219.89 277.79 219.64 275.37 C 218.38 275.25 217.12 275.18 215.86 275.14 C 214.19 277.39 213.39 280.03 213.08 282.79 C 210.31 287.08 205.69 289.81 201.21 292.03 C 204.08 288.56 206.72 284.33 205.62 279.62 C 204.92 278.89 204.22 278.16 203.54 277.44 C 198.85 275.61 194.02 277.63 189.82 279.74 C 193.88 270.83 199.23 262.61 204.46 254.36 C 205.04 253.01 206.77 251.29 205.32 249.96 C 201.80 251.33 199.74 254.72 197.40 257.47 C 190.90 266.27 185.65 276.10 182.38 286.56 C 178.19 289.47 174.58 293.14 170.36 296.01 C 171.99 289.33 176.31 283.66 177.87 277.02 C 171.84 276.43 170.45 283.72 167.67 287.60 C 164.15 291.42 160.26 295.94 154.80 296.64 C 155.38 290.39 158.01 284.50 161.07 279.11 C 168.53 271.54 176.62 264.23 181.84 254.83 C 183.55 252.62 182.14 249.16 179.12 250.01 C 174.73 250.74 171.58 254.57 168.71 257.71 M 175.43 272.76 C 177.62 273.38 179.88 272.88 181.91 271.97 C 181.87 271.24 181.79 269.78 181.75 269.05 C 179.22 268.49 174.10 269.09 175.43 272.76 Z" />
<path fill="#030303" opacity="1.00" d=" M 131.67 271.10 C 135.48 264.36 139.92 257.86 145.66 252.60 C 142.16 259.59 136.38 264.98 131.67 271.10 Z" />
<path fill="#030303" opacity="1.00" d=" M 166.27 270.10 C 169.84 263.73 174.15 257.68 179.56 252.74 C 176.20 259.28 171.06 264.62 166.27 270.10 Z" />
<path fill="#030303" opacity="1.00" d=" M 73.77 296.66 C 72.84 288.52 79.01 279.64 87.38 278.69 C 83.31 282.01 79.47 287.30 81.66 292.78 C 79.25 294.47 76.69 296.02 73.77 296.66 Z" />
<path fill="#030303" opacity="1.00" d=" M 97.78 296.67 C 96.85 288.70 102.86 279.65 111.14 278.86 C 107.20 282.19 103.51 287.41 105.66 292.78 C 103.25 294.47 100.69 296.02 97.78 296.67 Z" />
<path fill="#030303" opacity="1.00" d=" M 188.36 283.36 C 192.22 280.72 196.73 278.84 201.43 278.52 C 202.38 283.76 198.73 288.25 195.21 291.65 C 191.45 291.31 187.52 290.91 183.97 292.53 C 185.47 289.51 186.16 285.97 188.36 283.36 Z" />
<path fill="#030303" opacity="1.00" d=" M 83.77 290.61 C 84.63 286.91 85.72 283.08 88.48 280.31 C 88.86 284.35 86.19 287.69 83.77 290.61 Z" />
<path fill="#030303" opacity="1.00" d=" M 107.78 290.56 C 108.64 286.84 109.77 283.02 112.52 280.23 C 112.80 284.28 110.29 287.66 107.78 290.56 Z" />
<path fill="#030303" opacity="1.00" d=" M 184.67 296.33 C 183.74 291.63 190.51 292.92 193.33 292.94 C 190.81 294.73 187.95 296.85 184.67 296.33 Z" />
</g>
</svg>
