<?xml version="1.0" encoding="UTF-8" ?>
<!DOCTYPE svg PUBLIC "-//W3C//DTD SVG 1.1//EN" "http://www.w3.org/Graphics/SVG/1.1/DTD/svg11.dtd">
<svg width="512pt" height="512pt" viewBox="0 0 512 512" version="1.1" xmlns="http://www.w3.org/2000/svg">
<g id="#fefefeff">
<path fill="#fefefe" opacity="1.00" d=" M 0.00 0.00 L 0.10 0.00 C 0.07 0.02 0.02 0.06 0.00 0.09 L 0.00 0.00 Z" />
<path fill="#fefefe" opacity="1.00" d=" M 281.38 93.14 C 282.46 105.02 281.98 117.04 282.20 128.98 C 282.28 133.33 281.88 137.88 279.76 141.77 C 277.30 146.46 273.09 150.02 268.41 152.39 C 266.53 153.42 264.41 154.04 262.78 155.49 C 262.15 184.33 262.84 213.18 262.65 242.02 C 262.70 247.36 262.43 252.70 262.84 258.03 C 273.81 256.34 284.10 251.51 293.15 245.19 C 307.56 235.13 317.80 219.29 320.96 201.99 C 323.49 189.13 322.76 175.66 318.87 163.15 C 312.64 145.28 299.98 129.81 283.80 120.02 C 282.63 117.77 283.47 114.94 283.42 112.47 C 293.65 117.36 303.25 123.75 310.92 132.18 C 323.74 145.50 331.54 163.52 332.36 182.01 C 333.84 203.33 326.81 224.88 313.59 241.60 C 302.45 256.04 288.52 267.96 274.85 279.91 C 267.07 286.72 258.35 292.31 249.77 298.02 C 254.02 292.46 258.97 286.64 259.49 279.34 C 237.91 282.69 215.15 280.93 195.16 271.75 C 191.28 269.81 187.76 267.24 184.27 264.68 C 195.09 264.61 206.03 265.31 216.75 263.25 C 215.16 261.67 213.05 260.85 211.23 259.59 C 193.57 247.91 179.83 230.44 172.36 210.65 C 165.66 192.06 165.58 171.28 171.57 152.50 C 179.77 127.97 198.21 107.90 219.91 94.37 C 220.14 101.56 220.12 108.76 220.03 115.95 C 220.22 117.40 218.69 118.02 217.81 118.84 C 201.16 131.55 188.23 149.73 183.59 170.32 C 180.04 185.93 182.06 202.69 188.97 217.12 C 198.88 237.43 218.70 252.89 241.06 256.80 C 241.71 233.22 241.35 209.61 241.47 186.02 C 241.35 175.81 241.75 165.56 241.02 155.37 C 236.64 151.62 230.37 150.07 226.98 145.05 C 221.85 139.09 222.11 130.82 222.17 123.44 C 226.07 126.08 230.74 126.89 235.27 127.72 C 235.67 123.52 234.98 119.24 235.87 115.09 C 245.63 118.33 256.93 117.25 265.67 111.70 C 272.87 107.48 277.26 100.12 281.38 93.14 Z" />
<path fill="#fefefe" opacity="1.00" d=" M 212.58 317.57 C 215.59 314.89 219.01 310.80 223.54 312.27 C 225.58 313.92 224.12 316.34 223.14 318.15 C 219.03 324.82 213.59 330.54 208.14 336.12 C 206.03 338.35 203.26 340.06 201.97 342.95 C 199.75 347.90 197.06 352.91 196.93 358.46 C 198.22 358.56 199.42 358.27 200.50 357.60 C 205.63 354.70 209.24 349.94 213.53 346.02 C 211.21 350.60 207.10 353.91 203.65 357.62 C 201.79 359.58 198.73 362.14 196.10 359.91 C 192.67 358.05 193.04 353.63 193.67 350.40 C 191.25 353.36 187.71 355.19 183.96 355.75 C 180.74 358.42 176.47 362.16 172.05 359.96 C 168.56 358.35 168.75 353.96 169.52 350.81 C 166.87 353.27 163.66 355.44 159.94 355.64 C 156.87 358.49 152.47 362.09 148.08 359.97 C 144.76 358.47 144.69 354.33 145.41 351.28 C 146.90 346.12 150.55 341.40 155.67 339.49 C 159.68 338.29 165.65 338.86 166.62 343.84 C 165.98 347.75 163.87 351.17 161.47 354.25 C 165.30 352.53 169.54 350.46 171.57 346.56 C 173.36 343.12 176.62 340.51 180.28 339.32 C 184.08 338.41 189.90 339.01 190.47 343.85 C 190.19 347.81 187.74 351.15 185.47 354.24 C 188.97 352.52 193.54 350.86 194.83 346.76 C 198.76 336.00 205.00 326.13 212.58 317.57 M 221.19 314.63 C 216.28 320.04 211.72 325.90 208.00 332.27 C 212.97 327.15 217.36 321.50 221.47 315.68 C 221.40 315.41 221.26 314.89 221.19 314.63 M 153.09 347.05 C 150.92 350.39 148.78 354.48 150.01 358.57 C 152.96 358.06 155.46 356.35 157.78 354.57 C 155.37 349.45 159.21 343.88 163.35 341.03 C 159.05 340.66 155.55 343.89 153.09 347.05 M 176.63 347.72 C 174.72 350.92 172.86 354.71 173.97 358.53 C 176.96 358.12 179.44 356.34 181.78 354.57 C 179.32 349.37 183.32 343.89 187.39 340.89 C 182.81 340.81 179.09 344.17 176.63 347.72 M 159.94 352.42 C 162.11 349.63 165.19 346.29 164.24 342.49 C 161.79 345.27 160.56 348.82 159.94 352.42 M 183.95 352.41 C 186.12 349.62 189.17 346.29 188.25 342.49 C 185.79 345.26 184.56 348.82 183.95 352.41 Z" />
<path fill="#fefefe" opacity="1.00" d=" M 252.69 312.64 C 254.64 311.61 258.05 311.41 258.70 314.10 C 258.14 317.23 256.11 319.78 254.35 322.32 C 250.47 327.43 246.12 332.16 241.57 336.67 C 239.59 338.68 237.08 340.33 235.93 343.02 C 233.72 347.95 231.06 352.94 230.93 358.46 C 235.17 358.45 238.29 354.90 241.25 352.27 C 245.46 348.81 246.11 342.70 250.48 339.37 C 251.53 338.62 254.50 338.72 253.70 340.65 C 251.26 346.43 248.02 351.91 246.38 358.02 C 250.59 355.14 254.16 351.44 258.37 348.56 C 261.97 337.21 267.71 326.48 275.24 317.25 C 277.12 315.14 278.88 312.35 281.97 312.08 C 281.79 313.38 281.61 314.72 280.81 315.81 C 275.37 324.28 270.04 332.85 265.63 341.91 C 269.39 340.06 273.64 337.79 277.94 339.02 C 279.89 339.39 281.70 341.06 281.78 343.12 C 282.35 347.30 279.70 350.94 277.13 353.93 C 281.35 352.28 285.03 349.51 288.13 346.23 C 290.23 344.24 288.76 340.87 290.84 338.82 C 291.68 336.89 294.67 336.14 295.75 338.28 C 295.99 340.39 294.78 342.31 294.55 344.38 C 299.41 342.74 304.00 340.32 308.04 337.16 C 309.08 337.97 310.07 338.86 310.99 339.82 C 308.01 345.67 304.07 351.12 302.17 357.46 C 305.41 355.35 308.36 352.83 311.39 350.44 C 313.96 348.57 314.93 345.33 317.30 343.26 C 319.63 340.81 322.73 339.31 325.94 338.41 C 329.10 338.82 331.88 340.84 332.65 344.05 C 328.57 341.54 323.98 343.97 321.03 346.99 C 317.75 349.92 315.58 353.90 314.46 358.13 C 322.11 358.13 325.45 349.69 331.24 346.08 C 332.63 344.70 335.03 346.22 334.64 348.02 C 333.79 352.15 330.63 355.34 329.74 359.48 C 335.80 355.33 340.31 349.39 346.16 345.02 C 346.30 341.98 347.07 337.16 350.89 337.00 C 354.57 337.82 351.72 342.06 351.54 344.37 C 356.40 342.75 361.00 340.34 365.02 337.16 C 366.07 337.97 367.07 338.85 367.99 339.81 C 364.98 345.68 361.10 351.18 359.10 357.52 C 362.86 354.85 366.71 352.15 369.95 348.87 C 372.30 344.79 374.28 338.14 379.91 338.18 C 378.58 344.62 373.80 350.45 374.94 357.40 C 376.95 357.53 378.60 356.25 380.17 355.19 C 385.40 351.51 389.30 346.34 393.32 341.45 C 395.53 342.74 393.53 345.52 393.34 347.40 C 390.32 356.76 386.65 366.03 381.46 374.42 C 378.32 379.61 373.63 383.98 367.90 386.12 C 365.12 387.07 361.49 386.95 359.59 384.43 C 357.20 380.92 359.20 376.45 361.47 373.44 C 366.02 368.10 372.38 364.79 378.27 361.16 C 372.53 366.39 363.72 369.20 361.06 377.22 C 359.78 380.51 362.72 383.54 365.79 384.14 C 370.90 382.71 374.07 378.04 376.77 373.81 C 381.41 365.74 384.78 357.03 389.05 348.78 C 385.23 353.19 381.38 358.72 375.12 359.52 C 373.51 359.98 372.05 358.91 370.55 358.54 C 369.00 356.27 368.76 353.33 369.81 350.81 C 366.52 354.64 362.67 358.01 358.40 360.71 C 355.97 360.94 353.84 359.40 353.44 356.96 C 354.27 352.69 355.96 348.70 358.14 344.96 C 355.92 346.04 353.71 347.57 351.16 347.61 C 349.36 347.31 347.45 344.91 345.89 346.96 C 341.27 351.41 337.67 357.02 332.12 360.48 C 330.24 361.24 327.55 361.06 326.43 359.13 C 325.86 355.67 327.98 352.67 329.57 349.82 C 325.86 353.01 322.84 356.96 318.82 359.79 C 317.53 360.88 315.82 360.82 314.24 360.85 C 311.50 358.62 311.15 354.87 311.94 351.65 C 308.95 355.21 305.31 358.22 301.39 360.72 C 298.96 360.93 296.86 359.39 296.44 356.96 C 297.26 352.68 299.00 348.72 301.10 344.93 C 297.91 346.97 293.77 348.86 290.47 345.92 C 285.38 349.17 281.89 355.38 275.34 356.00 C 270.46 358.96 264.24 362.89 258.64 359.11 C 258.41 359.65 257.96 360.74 257.73 361.29 C 257.42 360.21 256.80 358.07 256.49 356.99 C 257.11 354.83 257.30 352.57 257.59 350.36 C 254.55 354.21 251.06 357.80 246.99 360.56 C 241.65 361.93 241.42 354.83 243.31 351.70 C 239.95 354.80 237.33 359.32 232.80 360.82 C 228.55 360.67 226.34 355.89 227.43 352.12 C 229.37 342.58 234.43 334.00 239.85 326.04 C 243.43 320.99 247.31 315.90 252.69 312.64 M 242.01 332.47 C 246.80 326.80 252.10 321.41 255.59 314.79 C 249.95 319.71 245.75 326.05 242.01 332.47 M 264.31 345.38 C 262.09 348.03 261.42 351.64 259.96 354.72 C 263.98 351.40 270.24 355.93 273.33 351.45 C 275.79 348.49 278.62 344.60 277.16 340.56 C 272.52 340.86 268.13 342.82 264.31 345.38 M 260.21 356.95 C 260.51 357.36 261.10 358.19 261.40 358.61 C 264.15 358.07 267.25 357.15 268.97 354.82 C 266.01 354.90 262.13 354.01 260.21 356.95 Z" />
<path fill="#fefefe" opacity="1.00" d=" M 152.12 313.92 C 153.42 313.27 154.68 312.52 156.16 312.37 C 156.30 312.85 156.59 313.80 156.73 314.27 C 161.40 314.70 166.04 315.45 170.73 315.59 C 175.41 316.92 180.41 315.86 184.74 313.85 C 183.61 316.27 181.32 318.04 178.73 318.62 C 170.38 320.73 161.72 319.06 153.25 319.74 C 147.64 331.26 140.17 342.20 137.64 354.96 C 137.46 357.40 136.60 360.71 138.99 362.37 C 141.14 362.68 143.17 361.79 145.22 361.27 C 142.38 363.27 137.91 364.77 135.19 361.77 C 131.42 357.66 132.71 351.51 133.72 346.58 C 136.56 336.72 141.97 327.80 147.87 319.49 C 140.67 319.89 133.34 320.72 126.65 323.58 C 124.38 324.60 121.90 325.85 120.95 328.32 C 122.34 330.34 126.15 329.49 126.15 332.35 C 122.47 333.20 119.37 330.30 118.44 326.96 C 118.29 322.75 122.18 320.16 125.45 318.39 C 133.68 314.46 143.07 312.94 152.12 313.92 Z" />
<path fill="#fefefe" opacity="1.00" d=" M 251.22 334.80 C 250.41 331.11 255.33 330.13 257.94 331.31 C 258.81 335.27 253.84 335.37 251.22 334.80 Z" />
</g>
<g id="#030303ff">
<path fill="#030303" opacity="1.00" d=" M 0.10 0.00 L 512.00 0.00 L 512.00 512.00 L 0.00 512.00 L 0.00 0.09 C 0.02 0.06 0.07 0.02 0.10 0.00 M 281.38 93.14 C 277.26 100.12 272.87 107.48 265.67 111.70 C 256.93 117.25 245.63 118.33 235.87 115.09 C 234.98 119.24 235.67 123.52 235.27 127.72 C 230.74 126.89 226.07 126.08 222.17 123.44 C 222.11 130.82 221.85 139.09 226.98 145.05 C 230.37 150.07 236.64 151.62 241.02 155.37 C 241.75 165.56 241.35 175.81 241.47 186.02 C 241.35 209.61 241.71 233.22 241.06 256.80 C 218.70 252.89 198.88 237.43 188.97 217.12 C 182.06 202.69 180.04 185.93 183.59 170.32 C 188.23 149.73 201.16 131.55 217.81 118.84 C 218.69 118.02 220.22 117.40 220.03 115.95 C 220.12 108.76 220.14 101.56 219.91 94.37 C 198.21 107.90 179.77 127.97 171.57 152.50 C 165.58 171.28 165.66 192.06 172.36 210.65 C 179.83 230.44 193.57 247.91 211.23 259.59 C 213.05 260.85 215.16 261.67 216.75 263.25 C 206.03 265.31 195.09 264.61 184.27 264.68 C 187.76 267.24 191.28 269.81 195.16 271.75 C 215.15 280.93 237.91 282.69 259.49 279.34 C 258.97 286.64 254.02 292.46 249.77 298.02 C 258.35 292.31 267.07 286.72 274.85 279.91 C 288.52 267.96 302.45 256.04 313.59 241.60 C 326.81 224.88 333.84 203.33 332.36 182.01 C 331.54 163.52 323.74 145.50 310.92 132.18 C 303.25 123.75 293.65 117.36 283.42 112.47 C 283.47 114.94 282.63 117.77 283.80 120.02 C 299.98 129.81 312.64 145.28 318.87 163.15 C 322.76 175.66 323.49 189.13 320.96 201.99 C 317.80 219.29 307.56 235.13 293.15 245.19 C 284.10 251.51 273.81 256.34 262.84 258.03 C 262.43 252.70 262.70 247.36 262.65 242.02 C 262.84 213.18 262.15 184.33 262.78 155.49 C 264.41 154.04 266.53 153.42 268.41 152.39 C 273.09 150.02 277.30 146.46 279.76 141.77 C 281.88 137.88 282.28 133.33 282.20 128.98 C 281.98 117.04 282.46 105.02 281.38 93.14 M 212.58 317.57 C 205.00 326.13 198.76 336.00 194.83 346.76 C 193.54 350.86 188.97 352.52 185.47 354.24 C 187.74 351.15 190.19 347.81 190.47 343.85 C 189.90 339.01 184.08 338.41 180.28 339.32 C 176.62 340.51 173.36 343.12 171.57 346.56 C 169.54 350.46 165.30 352.53 161.47 354.25 C 163.87 351.17 165.98 347.75 166.62 343.84 C 165.65 338.86 159.68 338.29 155.67 339.49 C 150.55 341.40 146.90 346.12 145.41 351.28 C 144.69 354.33 144.76 358.47 148.08 359.97 C 152.47 362.09 156.87 358.49 159.94 355.64 C 163.66 355.44 166.87 353.27 169.52 350.81 C 168.75 353.96 168.56 358.35 172.05 359.96 C 176.47 362.16 180.74 358.42 183.96 355.75 C 187.71 355.19 191.25 353.36 193.67 350.40 C 193.04 353.63 192.67 358.05 196.10 359.91 C 198.73 362.14 201.79 359.58 203.65 357.62 C 207.10 353.91 211.21 350.60 213.53 346.02 C 209.24 349.94 205.63 354.70 200.50 357.60 C 199.42 358.27 198.22 358.56 196.93 358.46 C 197.06 352.91 199.75 347.90 201.97 342.95 C 203.26 340.06 206.03 338.35 208.14 336.12 C 213.59 330.54 219.03 324.82 223.14 318.15 C 224.12 316.34 225.58 313.92 223.54 312.27 C 219.01 310.80 215.59 314.89 212.58 317.57 M 252.69 312.64 C 247.31 315.90 243.43 320.99 239.85 326.04 C 234.43 334.00 229.37 342.58 227.43 352.12 C 226.34 355.89 228.55 360.67 232.80 360.82 C 237.33 359.32 239.95 354.80 243.31 351.70 C 241.42 354.83 241.65 361.93 246.99 360.56 C 251.06 357.80 254.55 354.21 257.59 350.36 C 257.30 352.57 257.11 354.83 256.49 356.99 C 256.80 358.07 257.42 360.21 257.73 361.29 C 257.96 360.74 258.41 359.65 258.64 359.11 C 264.24 362.89 270.46 358.96 275.34 356.00 C 281.89 355.38 285.38 349.17 290.47 345.92 C 293.77 348.86 297.91 346.97 301.10 344.93 C 299.00 348.72 297.26 352.68 296.44 356.96 C 296.86 359.39 298.96 360.93 301.39 360.72 C 305.31 358.22 308.95 355.21 311.94 351.65 C 311.15 354.87 311.50 358.62 314.24 360.85 C 315.82 360.82 317.53 360.88 318.82 359.79 C 322.84 356.96 325.86 353.01 329.57 349.82 C 327.98 352.67 325.86 355.67 326.43 359.13 C 327.55 361.06 330.24 361.24 332.12 360.48 C 337.67 357.02 341.27 351.41 345.89 346.96 C 347.45 344.91 349.36 347.31 351.16 347.61 C 353.71 347.57 355.92 346.04 358.14 344.96 C 355.96 348.70 354.27 352.69 353.44 356.96 C 353.84 359.40 355.97 360.94 358.40 360.71 C 362.67 358.01 366.52 354.64 369.81 350.81 C 368.76 353.33 369.00 356.27 370.55 358.54 C 372.05 358.91 373.51 359.98 375.12 359.52 C 381.38 358.72 385.23 353.19 389.05 348.78 C 384.78 357.03 381.41 365.74 376.77 373.81 C 374.07 378.04 370.90 382.71 365.79 384.14 C 362.72 383.54 359.78 380.51 361.06 377.22 C 363.72 369.20 372.53 366.39 378.27 361.16 C 372.38 364.79 366.02 368.10 361.47 373.44 C 359.20 376.45 357.20 380.92 359.59 384.43 C 361.49 386.95 365.12 387.07 367.90 386.12 C 373.63 383.98 378.32 379.61 381.46 374.42 C 386.65 366.03 390.32 356.76 393.34 347.40 C 393.53 345.52 395.53 342.74 393.32 341.45 C 389.30 346.34 385.40 351.51 380.17 355.19 C 378.60 356.25 376.95 357.53 374.94 357.40 C 373.80 350.45 378.58 344.62 379.91 338.18 C 374.28 338.14 372.30 344.79 369.95 348.87 C 366.71 352.15 362.86 354.85 359.10 357.52 C 361.10 351.18 364.98 345.68 367.99 339.81 C 367.07 338.85 366.07 337.97 365.02 337.16 C 361.00 340.34 356.40 342.75 351.54 344.37 C 351.72 342.06 354.57 337.82 350.89 337.00 C 347.07 337.16 346.30 341.98 346.16 345.02 C 340.31 349.39 335.80 355.33 329.74 359.48 C 330.63 355.34 333.79 352.15 334.64 348.02 C 335.03 346.22 332.63 344.70 331.24 346.08 C 325.45 349.69 322.11 358.13 314.46 358.13 C 315.58 353.90 317.75 349.92 321.03 346.99 C 323.98 343.97 328.57 341.54 332.65 344.05 C 331.88 340.84 329.10 338.82 325.94 338.41 C 322.73 339.31 319.63 340.81 317.30 343.26 C 314.93 345.33 313.96 348.57 311.39 350.44 C 308.36 352.83 305.41 355.35 302.17 357.46 C 304.07 351.12 308.01 345.67 310.99 339.82 C 310.07 338.86 309.08 337.97 308.04 337.16 C 304.00 340.32 299.41 342.74 294.55 344.38 C 294.78 342.31 295.99 340.39 295.75 338.28 C 294.67 336.14 291.68 336.89 290.84 338.82 C 288.76 340.87 290.23 344.24 288.13 346.23 C 285.03 349.51 281.35 352.28 277.13 353.93 C 279.70 350.94 282.35 347.30 281.78 343.12 C 281.70 341.06 279.89 339.39 277.94 339.02 C 273.64 337.79 269.39 340.06 265.63 341.91 C 270.04 332.85 275.37 324.28 280.81 315.81 C 281.61 314.72 281.79 313.38 281.97 312.08 C 278.88 312.35 277.12 315.14 275.24 317.25 C 267.71 326.48 261.97 337.21 258.37 348.56 C 254.16 351.44 250.59 355.14 246.38 358.02 C 248.02 351.91 251.26 346.43 253.70 340.65 C 254.50 338.72 251.53 338.62 250.48 339.37 C 246.11 342.70 245.46 348.81 241.25 352.27 C 238.29 354.90 235.17 358.45 230.93 358.46 C 231.06 352.94 233.72 347.95 235.93 343.02 C 237.08 340.33 239.59 338.68 241.57 336.67 C 246.12 332.16 250.47 327.43 254.35 322.32 C 256.11 319.78 258.14 317.23 258.70 314.10 C 258.05 311.41 254.64 311.61 252.69 312.64 M 152.12 313.92 C 143.07 312.94 133.68 314.46 125.45 318.39 C 122.18 320.16 118.29 322.75 118.44 326.96 C 119.37 330.30 122.47 333.20 126.15 332.35 C 126.15 329.49 122.34 330.34 120.95 328.32 C 121.90 325.85 124.38 324.60 126.65 323.58 C 133.34 320.72 140.67 319.89 147.87 319.49 C 141.97 327.80 136.56 336.72 133.72 346.58 C 132.71 351.51 131.42 357.66 135.19 361.77 C 137.91 364.77 142.38 363.27 145.22 361.27 C 143.17 361.79 141.14 362.68 138.99 362.37 C 136.60 360.71 137.46 357.40 137.64 354.96 C 140.17 342.20 147.64 331.26 153.25 319.74 C 161.72 319.06 170.38 320.73 178.73 318.62 C 181.32 318.04 183.61 316.27 184.74 313.85 C 180.41 315.86 175.41 316.92 170.73 315.59 C 166.04 315.45 161.40 314.70 156.73 314.27 C 156.59 313.80 156.30 312.85 156.16 312.37 C 154.68 312.52 153.42 313.27 152.12 313.92 M 251.22 334.80 C 253.84 335.37 258.81 335.27 257.94 331.31 C 255.33 330.13 250.41 331.11 251.22 334.80 Z" />
<path fill="#030303" opacity="1.00" d=" M 221.19 314.63 C 221.26 314.89 221.40 315.41 221.47 315.68 C 217.36 321.50 212.97 327.15 208.00 332.27 C 211.72 325.90 216.28 320.04 221.19 314.63 Z" />
<path fill="#030303" opacity="1.00" d=" M 242.01 332.47 C 245.75 326.05 249.95 319.71 255.59 314.79 C 252.10 321.41 246.80 326.80 242.01 332.47 Z" />
<path fill="#030303" opacity="1.00" d=" M 153.09 347.05 C 155.55 343.89 159.05 340.66 163.35 341.03 C 159.21 343.88 155.37 349.45 157.78 354.57 C 155.46 356.35 152.96 358.06 150.01 358.57 C 148.78 354.48 150.92 350.39 153.09 347.05 Z" />
<path fill="#030303" opacity="1.00" d=" M 176.63 347.72 C 179.09 344.17 182.81 340.81 187.39 340.89 C 183.32 343.89 179.32 349.37 181.78 354.57 C 179.44 356.34 176.96 358.12 173.97 358.53 C 172.86 354.71 174.72 350.92 176.63 347.72 Z" />
<path fill="#030303" opacity="1.00" d=" M 264.31 345.38 C 268.13 342.82 272.52 340.86 277.16 340.56 C 278.62 344.60 275.79 348.49 273.33 351.45 C 270.24 355.93 263.98 351.40 259.96 354.72 C 261.42 351.64 262.09 348.03 264.31 345.38 Z" />
<path fill="#030303" opacity="1.00" d=" M 159.94 352.42 C 160.56 348.82 161.79 345.27 164.24 342.49 C 165.19 346.29 162.11 349.63 159.94 352.42 Z" />
<path fill="#030303" opacity="1.00" d=" M 183.95 352.41 C 184.56 348.82 185.79 345.26 188.25 342.49 C 189.17 346.29 186.12 349.62 183.95 352.41 Z" />
<path fill="#030303" opacity="1.00" d=" M 260.21 356.95 C 262.13 354.01 266.01 354.90 268.97 354.82 C 267.25 357.15 264.15 358.07 261.40 358.61 C 261.10 358.19 260.51 357.36 260.21 356.95 Z" />
</g>
</svg>
